<svg id="Layer_1" data-name="Layer 1" xmlns="http://www.w3.org/2000/svg" viewBox="0 0 842.11256 150">
  <defs>
    <style>
      .cls-1, .cls-2 {
        fill: #2350a0;
      }

      .cls-2, .cls-3 {
        fill-rule: evenodd;
      }

      .cls-3, .cls-4 {
        fill: #c03;
      }
    </style>
  </defs>
  <title>Admiral-Rewards-RGB</title>
  <g>
    <rect class="cls-1" x="508.302" width="4" height="150"/>
    <path class="cls-2" d="M166.099,61.0815l-7.622,27.1102h15.245Zm14.839,53.5102-3.761-13.3008H154.92l-3.761,13.3008H134.39L156.444,44.53h19.717l22.055,70.0617Z"/>
    <path class="cls-2" d="M227.693,98.4479a20.97184,20.97184,0,0,0,4.269-13.2015c0-3.7562-.813-6.3962-2.643-8.224a8.32563,8.32563,0,0,0-5.996-2.1315c-6.2,0-7.317,4.3655-7.317,14.0108,0,9.9521,1.219,13.4031,5.183,13.4031C223.73,102.3048,225.762,100.8846,227.693,98.4479ZM247.309,36.914v77.6777h-14.94l-.204-6.8026a17.65851,17.65851,0,0,1-15.143,8.1231,15.202,15.202,0,0,1-11.688-4.9758c-4.065-4.4678-6.098-11.2703-6.098-21.8301,0-9.9522,1.829-17.4647,6.809-22.2378,3.355-3.2492,8.03-5.28,14.433-5.28,4.268,0,7.927.9132,10.874,3.6556V36.914Z"/>
    <path class="cls-2" d="M271.805,62.807v7.8178a16.09645,16.09645,0,0,1,15.143-9.137c6.81,0,11.383,3.147,13.518,9.4423,3.252-5.787,8.435-9.4423,15.55-9.4423,9.451,0,14.736,6.4983,14.736,18.4786v34.6253H314.797V82.6077c0-4.2658-.712-6.3976-3.761-6.3976-4.575,0-9.248,5.2801-9.248,17.4647v20.9169H285.831V82.4034c0-3.8572-.61-6.1933-3.659-6.1933-4.675,0-9.35,5.2801-9.35,17.4647v20.9169H256.967V62.807h14.838"/>
    <path class="cls-2" d="M340.14,114.5917h15.95569V62.807H340.14Zm7.926-78.3877a9.18408,9.18408,0,0,1,9.35,9.545,9.099,9.099,0,0,1-9.35,9.4419,9.21859,9.21859,0,0,1-9.35-9.4419A9.30516,9.30516,0,0,1,348.066,36.204Z"/>
    <path class="cls-2" d="M380.611,62.807l-.102,8.1231c2.642-5.787,6.607-9.2406,12.196-9.2406a14.78685,14.78685,0,0,1,3.049.3053l-1.22,15.4339a23.24212,23.24212,0,0,0-2.642-.203c-8.435,0-10.367,10.0515-10.367,20.0036v17.3624H365.57V62.807h15.041"/>
    <path class="cls-2" d="M421.743,92.4562c-5.59,0-8.842.7116-8.842,6.7016,0,3.2493.915,5.1778,3.659,5.1778,4.268,0,10.976-4.6695,11.687-11.8794ZM400.299,69.1023c5.284-5.686,12.399-7.4128,20.733-7.4128,14.635,0,21.546,5.2801,21.546,19.9017v33.0005H429.06l-.101-6.6006a17.55867,17.55867,0,0,1-15.042,7.9211,16.45481,16.45481,0,0,1-11.382-4.0615c-3.049-2.8431-4.573-6.7026-4.573-11.9826,0-6.2943,2.234-10.5601,6.402-13.4031,4.472-3.0451,11.179-4.1626,18.091-4.1626h5.488V80.9832c0-5.6863-1.931-7.4131-7.622-7.4131-4.981,0-8.843,1.3208-12.196,4.5698Z"/>
    <rect class="cls-1" x="451.94101" y="36.91411" width="15.957" height="77.67759"/>
    <path class="cls-3" d="M93.4862,110.6033a18.64387,18.64387,0,0,1-5.9872,9.3047,27.29788,27.29788,0,0,1-11.99759,5.6339,46.92509,46.92509,0,0,1-16.05671.5102,66.0113,66.0113,0,0,1-16.8371-4.597,69.69225,69.69225,0,0,1-15.4048-8.8566,54.93207,54.93207,0,0,1-11.807-12.1335A33.77815,33.77815,0,0,1,9.6536,87.4255a20.55887,20.55887,0,0,1,.9517-11.4057,19.255,19.255,0,0,1,6.9164-8.6074,29.57683,29.57683,0,0,1,12.2125-4.764,44.48519,44.48519,0,0,1,7.9177-.6025,13.82233,13.82233,0,0,1-1.2268-2.4671,56.44378,56.44378,0,0,0-10.1662.7497,37.75011,37.75011,0,0,0-15.5192,6.0124A24.85811,24.85811,0,0,0,1.8191,77.305,26.52181,26.52181,0,0,0,.4469,91.9593a43.27859,43.27859,0,0,0,7.2418,16.8784,70.24224,70.24224,0,0,0,15.1731,15.7935,88.62787,88.62787,0,0,0,19.902,11.509,83.1612,83.1612,0,0,0,21.72831,5.8702,58.38216,58.38216,0,0,0,20.56889-.876,33.92214,33.92214,0,0,0,15.14-7.5417,23.91588,23.91588,0,0,0,7.302-12.1868,28.88514,28.88514,0,0,0-.376-14.2406H94.1018a19.46223,19.46223,0,0,1-.6156,3.438"/>
    <path class="cls-2" d="M42.2846,37.89c1.1402-5.106,3.3262-21.707,13.9829-28.15C38.8728.794,27.2845,13.508,32.2613,41.04c.6899,3.817,8.8017,2.324,10.0233-3.15"/>
    <path class="cls-2" d="M83.5228,46.489a41.1779,41.1779,0,0,1,1.0201,5.6961c3.0932.1483,8.63581.4179,10.4027.5014.0457-.1463.092-.3114.1371-.4577a4.93674,4.93674,0,0,1,.7342-1.3564,22.78673,22.78673,0,0,1-1.5595-2.1244,6.21956,6.21956,0,0,1,.5868-2.895c-2.856.151-8.2463.459-11.3214.636"/>
    <path class="cls-2" d="M140.783,43.151s-18.243,1.188-24.236,1.597l-2.748.929.848-1.345a16.20636,16.20636,0,0,0-5.45-1.85c0,.019.008.019.008.019a1.233,1.233,0,0,0-1.091.475,6.22462,6.22462,0,0,0-2.557-.64,1.62273,1.62273,0,0,0-1.174.696,12.517,12.517,0,0,0-1.972-.44,1.49072,1.49072,0,0,0-1.072.678,12.37384,12.37384,0,0,0-1.6965-.394.64212.64212,0,0,1-.1193.046,6.70458,6.70458,0,0,0-2.5216,3.096c-.6238,1.383-.8243,2.107-.6876,2.528a9.2111,9.2111,0,0,0,1.0178,2.3451l-.6423.5497a11.76752,11.76752,0,0,0,.2113,4.5439,15.562,15.562,0,0,0,6.0332,5.2208h-2.815s1.651,14.62.633,21.9111A81.86677,81.86677,0,0,1,82.087,81.203c1.1024-6.0278,3.5019-16.5523,3.5019-16.5523l-6.58469-.7967.50259-3.2493.5-2.7598c.33891-.0916,3.2879-.9625,3.2785-1.439a83.108,83.108,0,0,0-1.7877-9.7839l1.0723-1.227.2472-3.416,1.29351.357a.81684.81684,0,0,1,.03629-.147c1.30231-7.759,3.0806-29.038,2.54951-33.307C86.467,6.977,76.619,6.922,76.5189,6.922c-13.3041,0-26.339,9.475-31.5439,31.746-.6688,2.861-2.4085,6.196-8.3863,6.196-2.6411,0-3.2374-.742-3.2374-.742s6.8634,8.0437,26.0516-.978c12.4729-5.864,19.7043-.759,19.7043-.759a11.40323,11.40323,0,0,1,.5201,2.002c0,.073-1.9539,1.704-1.9539,1.704a30.49132,30.49132,0,0,1,3.2092,9.7652c-.2929.1651-4.2996.4225-4.2996.4225s.48091.7222,1.1017,1.5153a29.98814,29.98814,0,0,1-.4737,3.4546l-.7679,2.5536s1.6324,1.3224,1.2663,2.8261c-.442,1.8158-1.5308,3.8282-2.9474,3.8282-4.7082,0-12.0848-2.4141-15.318-3.8495-.3305-.147-3.238,5.1628-6.5901,23.9341a181.03772,181.03772,0,0,0-2.4394-33.6587s-4.9204.4529-5.8951-7.3654a19.282,19.282,0,0,1-6.991-1.753c-.0826,3.7098.9388,10.8381,5.8906,15.3713L33.3001,65.168l1.5006,14.6945a204.73418,204.73418,0,0,1-22.365,5.0774c.0344.2301.0619.4587.1044.6908a29.0525,29.0525,0,0,0,4.9395,11.217,47.25332,47.25332,0,0,0,10.1568,10.4377,59.96925,59.96925,0,0,0,13.2516,7.6187,56.80084,56.80084,0,0,0,14.4839,3.9544,40.36557,40.36557,0,0,0,13.8125-.439,23.48565,23.48565,0,0,0,10.32081-4.8463,16.05242,16.05242,0,0,0,5.06329-7.7287,20.60969,20.60969,0,0,1,.497-2.3918c.1287-.0271,24.6045,0,27.1815,0,9.101,0,9.18-42.2472,9.18-42.2472l-3.851-.0366a44.66948,44.66948,0,0,0-.11-6.2376l19.357,1.2269,3.96-13.0072"/>
    <path class="cls-2" d="M73.6528,48.941a3.34676,3.34676,0,0,0,.582-2.796l.9837-.159.3924-1.328c-4.666-3.067-7.9277,2.4-7.9277,2.4l3.1049-.537c-.7816,2.003,1.5355,3.6608,2.8647,2.42"/>
    <path class="cls-2" d="M77.8183,59.5827l-5.2302.663s2.61391,2.8167,4.9651,1.1382c1.2751-.9103,1.3642-.7494,1.3642-.7494l-1.0991-1.0518"/>
    <g>
      <path class="cls-4" d="M570.60181,50.20138c5.10938,0,9.58008.80175,12.93262,2.96777,3.59277,2.32617,6.06738,6.0166,6.06738,12.835,0,7.62012-3.0332,13.395-10.37793,15.3208,6.94532,1.2832,9.02051,8.10156,10.69727,24.22461H576.34986C574.35377,90.6296,573.2356,86.779,568.28638,86.779h-7.26464v18.77051h-12.9336V50.20138Zm-9.58007,25.66845h5.82714c6.14747,0,9.34082-1.36279,9.34082-8.34228,0-2.64649-.47851-4.1709-1.5166-5.13379-.958-.88184-2.3955-1.123-4.79-1.123h-8.86132Z"/>
      <path class="cls-4" d="M630.79517,99.69405c-4.55078,4.65235-10.13867,6.81836-17.32422,6.81836-5.668,0-10.05859-1.44434-13.17187-4.17187-3.59277-3.208-5.50879-8.3418-5.50879-16.44336,0-6.73828,1.35742-12.99463,5.34863-17.16651,2.874-2.96777,7.26465-5.13379,13.97071-5.13379,13.17285,0,17.24414,8.42286,17.24414,19.73291a35.43132,35.43132,0,0,1-.31934,4.8125l-24.0293.24121c.07911,5.29395,1.03711,8.42286,6.86524,8.42286a15.51571,15.51571,0,0,0,10.77734-4.332ZM619.45924,80.12081c-.08008-4.73242-.87891-7.3794-5.82813-7.3794-5.0293,0-6.30664,2.88819-6.4668,7.3794Z"/>
      <path class="cls-4" d="M646.761,64.63985l4.87012,26.79151,5.668-25.98877h12.93359l5.668,25.82861,4.87012-26.63135h12.374l-10.13867,40.90967H669.35377l-5.82715-25.99023-5.9082,25.99023H643.887l-9.73926-40.90967Z"/>
      <path class="cls-4" d="M696.41822,69.61349c4.15137-4.49219,9.73926-5.85547,16.28613-5.85547,11.4961,0,16.92481,4.17089,16.92481,15.72119v26.07031H719.011l-.0791-5.21387a13.77461,13.77461,0,0,1-11.8164,6.25684,12.88273,12.88273,0,0,1-8.94141-3.209c-2.39453-2.24609-3.5918-5.29394-3.5918-9.46484,0-4.97363,1.75586-8.34277,5.0293-10.58887,3.51269-2.40625,8.78125-3.28906,14.21094-3.28906h4.31054v-1.043c0-4.49072-1.5166-5.855-5.9873-5.855a12.77623,12.77623,0,0,0-9.58008,3.60987ZM713.263,88.06222c-4.39063,0-6.94532.56152-6.94532,5.29492,0,2.5664.71875,4.09082,2.874,4.09082,3.35351,0,8.62207-3.69043,9.18066-9.38574Z"/>
      <path class="cls-4" d="M750.384,64.63985l-.0791,6.65821c2.39453-5.53516,6.46582-7.78125,10.85742-7.78125a11.50516,11.50516,0,0,1,4.07129.80273L763.637,76.2712a10.91773,10.91773,0,0,0-3.03418-.48145c-7.18457,0-9.58008,7.21875-9.58008,16.20313v13.55664h-12.4541V64.63985Z"/>
      <path class="cls-4" d="M804.35181,44.18477v61.36475H792.61646l-.15918-5.374a13.85225,13.85225,0,0,1-11.89551,6.417,11.90694,11.90694,0,0,1-9.18066-3.93067c-3.19336-3.52929-4.791-8.90429-4.791-17.24609,0-7.86133,1.4375-13.79639,5.3496-17.56689,2.63477-2.56739,6.30665-4.1709,11.33594-4.1709,3.35352,0,6.22754.72168,8.543,2.88769V44.18477Zm-15.4082,48.61084a16.62643,16.62643,0,0,0,3.35352-10.42871c0-2.96777-.63868-5.05273-2.07618-6.49707a6.52,6.52,0,0,0-4.71-1.68408c-4.87011,0-5.748,3.44873-5.748,11.06885,0,7.86133.958,10.58887,4.07129,10.58887C785.83033,95.84347,787.427,94.72042,788.94361,92.79561Z"/>
      <path class="cls-4" d="M835.64674,76.11007a13.5803,13.5803,0,0,0-8.62305-2.96729c-2.79395,0-4.31055.80274-4.31055,2.88721,0,5.05371,19.39942,2.56738,19.39942,17.24609,0,9.78711-8.62207,13.23633-17.084,13.23633-5.50879,0-11.417-1.44434-14.76953-5.21387l5.748-7.70117a13.62527,13.62527,0,0,0,9.73926,3.5293c2.79492,0,4.791-.6416,4.791-3.28906,0-5.61426-19.48047-2.72657-19.48047-17.32618,0-8.58252,7.66406-12.75341,16.76563-12.75341,5.02929,0,10.3789,1.2832,13.57226,4.73242Z"/>
    </g>
  </g>
</svg>
